<?xml version="1.0" encoding="UTF-8" standalone="no"?>
<svg
   scale="2.0"
   width="260"
   height="260"
   viewBox="0 0 260 260"
   duration="80"
   version="1.1"
   id="svg8"
   inkscape:version="1.2.2 (b0a84865, 2022-12-01)"
   sodipodi:docname="winged_tub_launcher.svg"
   inkscape:export-filename="winged_tub_167x167.png"
   inkscape:export-xdpi="61.661537"
   inkscape:export-ydpi="61.661537"
   xml:space="preserve"
   xmlns:inkscape="http://www.inkscape.org/namespaces/inkscape"
   xmlns:sodipodi="http://sodipodi.sourceforge.net/DTD/sodipodi-0.dtd"
   xmlns="http://www.w3.org/2000/svg"
   xmlns:svg="http://www.w3.org/2000/svg"
   xmlns:rdf="http://www.w3.org/1999/02/22-rdf-syntax-ns#"
   xmlns:cc="http://creativecommons.org/ns#"
   xmlns:dc="http://purl.org/dc/elements/1.1/"><defs
     id="defs2" /><sodipodi:namedview
     id="base"
     pagecolor="#ffffff"
     bordercolor="#666666"
     borderopacity="1.0"
     inkscape:pageopacity="0.0"
     inkscape:pageshadow="2"
     inkscape:zoom="1.4142136"
     inkscape:cx="203.29319"
     inkscape:cy="130.4612"
     inkscape:document-units="px"
     inkscape:current-layer="g1250"
     inkscape:document-rotation="0"
     showgrid="true"
     units="px"
     inkscape:window-width="1728"
     inkscape:window-height="1051"
     inkscape:window-x="0"
     inkscape:window-y="38"
     inkscape:window-maximized="1"
     inkscape:snap-global="false"
     inkscape:snap-grids="true"
     inkscape:snap-to-guides="true"
     inkscape:object-paths="false"
     showguides="true"
     inkscape:guide-bbox="true"
     inkscape:showpageshadow="2"
     inkscape:pagecheckerboard="0"
     inkscape:deskcolor="#d1d1d1"><sodipodi:guide
       topRight="0,127"
       orientation="0,480"
       id="guide833"
       inkscape:locked="false"
       position="0,260" /><sodipodi:guide
       topRight="127,127"
       orientation="480,0"
       id="guide835"
       inkscape:locked="false"
       position="0,260" /><sodipodi:guide
       topRight="127,0"
       orientation="0,-480"
       id="guide837"
       inkscape:locked="false"
       position="0,260" /><sodipodi:guide
       topRight="0,0"
       orientation="-480,0"
       id="guide839"
       inkscape:locked="false"
       position="0,260" /><inkscape:grid
       type="xygrid"
       id="grid841"
       originx="0"
       originy="0" /><sodipodi:guide
       topRight="240,510"
       orientation="1,0"
       id="guide5641"
       inkscape:locked="false"
       position="0,260" /><sodipodi:guide
       topRight="-60,240"
       orientation="0,-1"
       id="guide5643"
       inkscape:locked="false"
       position="0,260" /></sodipodi:namedview><metadata
     id="metadata5"><rdf:RDF><cc:Work
         rdf:about=""><dc:format>image/svg+xml</dc:format><dc:type
           rdf:resource="http://purl.org/dc/dcmitype/StillImage" /></cc:Work></rdf:RDF></metadata><g
     inkscape:groupmode="layer"
     id="layer6"
     inkscape:label="rect bg"
     style="display:inline"
     sodipodi:insensitive="true"><rect
       style="fill:#2298f2;fill-opacity:1;stroke:none;stroke-width:0.547892;stroke-opacity:1;stop-color:#000000"
       id="rect1115"
       width="260"
       height="260"
       x="0"
       y="0" /></g><g
     inkscape:groupmode="layer"
     id="layer2"
     inkscape:label="oval bg"
     style="display:none"
     sodipodi:insensitive="true"><circle
       style="fill:#2298f2;fill-opacity:1;stroke-width:1.02138"
       id="path4487"
       cx="130"
       cy="130"
       r="130" /></g><g
     inkscape:groupmode="layer"
     id="g1250"
     inkscape:label="tub11"
     type="development"
     style="display:inline"
     sodipodi:insensitive="true"><g
       id="g1017"
       transform="translate(4.325655,22.654397)"><path
         style="fill:#fcfdf5;fill-opacity:1;stroke:#000000;stroke-width:1.5px;stroke-linecap:butt;stroke-linejoin:miter;stroke-opacity:1"
         d="m 32.28149,70.46424 -5.89286,0.35714 -3.03572,-0.71429 -3.39285,-3.39285 -1.07143,-3.21429 v -3.57143 l 2.5,-2.5 5,-1.42857 13.39286,-1.96429 17.67857,-0.71428 13.03571,-0.17857 20,-0.35715 26.07143,-0.53571 24.82143,-0.35714 31.07143,0.35714 19.64285,0.35714 13.03572,1.07143 11.60714,1.60714 8.39286,1.42858 4.64286,1.42857 2.32143,1.78571 0.35714,1.07143 v 1.78571 l -0.53572,1.42858 -1.60714,1.78571 -3.21429,0.35714 -1.78571,0.53572 -3.21429,4.10714 -3.39285,8.03571 -2.67857,8.39286 -2.85715,9.10714 -1.60714,6.07143 -3.21429,5 -3.21428,3.03572 -5.71429,3.03571 -9.10714,2.85714 -12.85714,0.71429 -14.28572,0.53571 -21.25,0.35715 -16.96428,0.17857 -19.82143,-0.35714 -15.35714,-0.71429 -15.35715,-1.25 -5.89285,-2.32143 -7.32143,-5.17857 -7.85715,-9.64286 -7.14285,-8.92857 -7.14286,-8.75 z"
         id="path1226"
         inkscape:connector-curvature="0" /><path
         inkscape:connector-curvature="0"
         id="path1228"
         d="m 27.8172,62.24995 -8.92857,1.25 v -3.57143 l 2.5,-2.5 5,-1.42857 13.39286,-1.96429 17.67857,-0.71428 13.03571,-0.17857 20,-0.35715 26.07143,-0.53571 24.82143,-0.35714 31.07143,0.35714 19.64285,0.35714 13.03572,1.07143 11.60714,1.60714 8.39286,1.42858 4.64286,1.42857 2.32143,1.78571 0.35714,1.07143 v 1.78571 L 216.75863,61.4856 192.26618,60.5261 159.33505,59.74995 118.17608,59.34816 84.96203,59.67247 39.6922,60.46424 Z"
         style="fill:none;stroke:#000000;stroke-width:1.5px;stroke-linecap:butt;stroke-linejoin:miter;stroke-opacity:1"
         sodipodi:nodetypes="ccccccccccccccccccccccccccc" /><path
         style="fill:#fcfdf5;fill-opacity:1;stroke:#000000;stroke-width:1.5px;stroke-linecap:butt;stroke-linejoin:miter;stroke-opacity:1"
         d="m 84.43072,116.81442 -3.39923,9.72124 -3.92858,1.60715 -1.25,1.42857 0.71429,4.82143 0.89286,5.35714 -3.39286,2.14286 -0.35714,3.75 -1.96429,2.67857 2.85714,5.53571 -0.53571,2.14286 6.25,1.25 5.71429,-3.92857 2.67857,-5.89286 1.60714,-2.85714 -1.42857,-5.53572 0.17857,-5.35714 17.68127,-15.68527 -5.57966,-0.21365 -7.47552,-0.3477 -7.666,-0.48752 z"
         id="path1230"
         inkscape:connector-curvature="0" /><path
         style="fill:#fcfdf5;fill-opacity:1;stroke:#000000;stroke-width:1.5px;stroke-linecap:butt;stroke-linejoin:miter;stroke-opacity:1"
         d="m 99.62315,117.70771 1.22976,8.11367 -1.78571,3.21428 0.71429,4.28572 -0.35715,5.89286 -3.21428,0.17857 -1.96429,7.85714 0.53572,2.14286 -0.17858,3.03571 3.03572,6.07143 9.28571,0.89286 4.64286,-8.21429 -1.25,-5.71428 v -5.35715 l 1.96429,-5.89285 v -5 l 5.3563,-11.02479 -5.0016,-0.0901 -5.88772,-0.10608 z"
         id="path1232"
         inkscape:connector-curvature="0" /><path
         style="fill:#fcfdf5;fill-opacity:1;stroke:#000000;stroke-width:1.5px;stroke-linecap:butt;stroke-linejoin:miter;stroke-opacity:1"
         d="m 153.91525,117.94128 -0.20519,7.8801 -4.82143,4.10714 2.14286,4.64286 -2.32143,3.92857 0.17857,4.82143 -2.32143,1.42857 -4.46429,5 -0.17857,7.81907 10.89286,3.92857 9.28571,-8.8905 -1.42857,-9.46428 1.42857,-7.5 6.25,-8.39286 3.9091,-9.80507 -6.59118,0.24716 -6.59947,0.16258 z"
         id="path1234"
         inkscape:connector-curvature="0"
         sodipodi:nodetypes="cccccccccccccccccc" /><path
         style="fill:#fcfdf5;fill-opacity:1;stroke:#000000;stroke-width:1.5px;stroke-linecap:butt;stroke-linejoin:miter;stroke-opacity:1"
         d="m 168.53065,117.5848 4.10798,11.45086 1.25,7.5 2.5,3.03572 -1.60714,2.67857 v 5.53571 l 1.78571,1.78572 -1.96429,5.35714 2.14286,4.20431 3.75,2.14286 3.39286,1.42857 4.46428,-2.85714 3.03572,-7.59717 -3.92857,-7.67857 0.71428,-5.53572 -1.42857,-5.89285 3.57143,-16.60715 -4.64835,0.25824 -9.45035,0.50261 z"
         id="path1236"
         inkscape:connector-curvature="0"
         sodipodi:nodetypes="cccccccccccccccccccc" /><path
         style="fill:#cacbc3;fill-opacity:1;stroke:none;stroke-width:1.5px;stroke-linecap:butt;stroke-linejoin:miter;stroke-opacity:1"
         d="m 34.23856,70 7.3236,12.12183 16.16244,19.44544 5.55584,6.06091 5.3033,4.54569 4.54569,2.27284 15.9099,1.51523 L 110,116.46702 85.5038,111.16372 68.3312,103.58757 51.15861,84.89975 Z"
         id="path1238"
         inkscape:connector-curvature="0" /><path
         style="fill:#cacbc3;fill-opacity:1;stroke:none;stroke-width:1.5px;stroke-linecap:butt;stroke-linejoin:miter;stroke-opacity:1"
         d="m 20.85404,64.44416 17.9302,-2.27284 80.05459,-1.26269 62.882,1.01015 48.48732,1.76777 -13.13198,2.27284 -57.83124,-0.75761 -77.78174,0.50507 -53.03301,0.50508 z"
         id="path1240"
         inkscape:connector-curvature="0" /><path
         style="fill:#cacbc3;fill-opacity:1;stroke:none;stroke-width:1.5px;stroke-linecap:butt;stroke-linejoin:miter;stroke-opacity:1"
         d="m 85.13863,118.67852 -3.21429,9.46429 -4.82143,1.96428 2.32143,9.64286 -4.28571,2.67857 -0.17857,4.28572 -1.42857,1.07142 2.85714,6.60715 0.53571,-9.10715 4.10715,-5.35714 -1.25,-7.67857 3.75,-3.03571 3.38388,-3.43247 11.0804,-6.38896 z"
         id="path1242"
         inkscape:connector-curvature="0"
         sodipodi:nodetypes="ccccccccccccccc" /><path
         style="fill:#cacbc3;fill-opacity:1;stroke:none;stroke-width:1.5px;stroke-linecap:butt;stroke-linejoin:miter;stroke-opacity:1"
         d="m 101.38863,119.21424 1.25,7.32142 -2.32143,3.03572 1.07143,4.10714 -0.71429,6.78572 -3.39285,0.53571 -1.96429,6.07143 1.07143,2.67857 -0.35714,2.5 2.14285,4.64286 1.42857,-11.78572 2.85715,-4.10714 1.07143,-12.85714 3.94126,-3.84192 7.66588,-4.72951 z"
         id="path1244"
         inkscape:connector-curvature="0"
         sodipodi:nodetypes="cccccccccccccccc" /><path
         style="fill:#cacbc3;fill-opacity:1;stroke:none;stroke-width:1.5px;stroke-linecap:butt;stroke-linejoin:miter;stroke-opacity:1"
         d="m 155.3172,119.57138 0.17857,7.85714 -4.82143,2.67857 2.32143,5.53572 -2.67857,3.21428 -0.17857,5.71429 -3.03572,1.42857 -3.39285,4.28571 -0.35715,6.07143 5,-8.03571 3.21429,-2.85714 v -5.35715 l 3.57143,-4.28571 v -4.28572 l 4.92975,-5.60968 6.85596,-7.06889 z"
         id="path1246"
         inkscape:connector-curvature="0"
         sodipodi:nodetypes="ccccccccccccccccc" /><path
         style="fill:#cacbc3;fill-opacity:1;stroke:none;stroke-width:1.5px;stroke-linecap:butt;stroke-linejoin:miter;stroke-opacity:1"
         d="m 170.3172,118.67852 3.75,9.82143 1.07143,7.32143 3.03571,3.57143 -2.14285,3.21428 v 3.92857 l 2.32142,2.67858 -2.32142,5.53571 0.71428,2.5 0.53572,0.89286 3.21428,-8.92857 -2.5,-5.53572 2.14286,-5.17857 -3.4631,-10.20921 4.00625,-5.63135 7.67113,-4.15944 z"
         id="path1248"
         inkscape:connector-curvature="0"
         sodipodi:nodetypes="ccccccccccccccccc" /></g></g></svg>
